# MagicaVoxel @ Ephtracy

# group
o 

# material
mtllib spirit.mtl
usemtl palette

# normals
vn -1 0 0
vn 1 0 0
vn 0 0 1
vn 0 0 -1
vn 0 -1 0
vn 0 1 0

# texcoords
vt 0.958984 0.5
vt 0.962891 0.5

# verts
v -0.5 0.4 0.1
v -0.5 0.4 -0.1
v -0.5 0.6 0.1
v -0.5 0.6 -0.1
v -0.4 0.3 0.2
v -0.4 0.3 0.1
v -0.4 0.3 -0.1
v -0.4 0.3 -0.2
v -0.4 0.4 0.2
v -0.4 0.4 0.1
v -0.4 0.4 -0.1
v -0.4 0.4 -0.2
v -0.4 0.6 0.2
v -0.4 0.6 0.1
v -0.4 0.6 -0.1
v -0.4 0.6 -0.2
v -0.4 0.7 0.2
v -0.4 0.7 0.1
v -0.4 0.7 -0.1
v -0.4 0.7 -0.2
v -0.3 0.2 0.2
v -0.3 0.2 -0.2
v -0.3 0.3 0.3
v -0.3 0.3 0.2
v -0.3 0.3 0.1
v -0.3 0.3 -0.1
v -0.3 0.3 -0.2
v -0.3 0.3 -0.3
v -0.3 0.4 0.2
v -0.3 0.4 -0.2
v -0.3 0.6 0.2
v -0.3 0.6 -0.2
v -0.3 0.7 0.3
v -0.3 0.7 0.2
v -0.3 0.7 0.1
v -0.3 0.7 -0.1
v -0.3 0.7 -0.2
v -0.3 0.7 -0.3
v -0.3 0.8 0.2
v -0.3 0.8 -0.2
v -0.2 0.1 0.2
v -0.2 0.1 0.1
v -0.2 0.1 -0.1
v -0.2 0.1 -0.2
v -0.2 0.2 0.3
v -0.2 0.2 0.2
v -0.2 0.2 0.1
v -0.2 0.2 -0.1
v -0.2 0.2 -0.2
v -0.2 0.2 -0.3
v -0.2 0.3 0.4
v -0.2 0.3 0.3
v -0.2 0.3 0.2
v -0.2 0.3 -0.2
v -0.2 0.3 -0.3
v -0.2 0.3 -0.4
v -0.2 0.4 0.4
v -0.2 0.4 0.3
v -0.2 0.4 -0.3
v -0.2 0.4 -0.4
v -0.2 0.6 0.4
v -0.2 0.6 0.3
v -0.2 0.6 -0.3
v -0.2 0.6 -0.4
v -0.2 0.7 0.4
v -0.2 0.7 0.3
v -0.2 0.7 0.2
v -0.2 0.7 -0.2
v -0.2 0.7 -0.3
v -0.2 0.7 -0.4
v -0.2 0.8 0.3
v -0.2 0.8 0.2
v -0.2 0.8 0.1
v -0.2 0.8 -0.1
v -0.2 0.8 -0.2
v -0.2 0.8 -0.3
v -0.2 0.9 0.2
v -0.2 0.9 0.1
v -0.2 0.9 -0.1
v -0.2 0.9 -0.2
v -0.1 0 0.1
v -0.1 0 -0.1
v -0.1 0.1 0.1
v -0.1 0.1 -0.1
v -0.1 0.4 0.5
v -0.1 0.4 0.4
v -0.1 0.4 -0.4
v -0.1 0.4 -0.5
v -0.1 0.6 0.5
v -0.1 0.6 0.4
v -0.1 0.6 -0.4
v -0.1 0.6 -0.5
v -0.1 0.9 0.1
v -0.1 0.9 -0.1
v -0.1 1 0.1
v -0.1 1 -0.1
v 0.1 0 0.1
v 0.1 0 -0.1
v 0.1 0.1 0.1
v 0.1 0.1 -0.1
v 0.1 0.4 0.5
v 0.1 0.4 0.4
v 0.1 0.4 -0.4
v 0.1 0.4 -0.5
v 0.1 0.6 0.5
v 0.1 0.6 0.4
v 0.1 0.6 -0.4
v 0.1 0.6 -0.5
v 0.1 0.9 0.1
v 0.1 0.9 -0.1
v 0.1 1 0.1
v 0.1 1 -0.1
v 0.2 0.1 0.2
v 0.2 0.1 0.1
v 0.2 0.1 -0.1
v 0.2 0.1 -0.2
v 0.2 0.2 0.3
v 0.2 0.2 0.2
v 0.2 0.2 0.1
v 0.2 0.2 -0.1
v 0.2 0.2 -0.2
v 0.2 0.2 -0.3
v 0.2 0.3 0.4
v 0.2 0.3 0.3
v 0.2 0.3 0.2
v 0.2 0.3 -0.2
v 0.2 0.3 -0.3
v 0.2 0.3 -0.4
v 0.2 0.4 0.4
v 0.2 0.4 0.3
v 0.2 0.4 -0.3
v 0.2 0.4 -0.4
v 0.2 0.6 0.4
v 0.2 0.6 0.3
v 0.2 0.6 -0.3
v 0.2 0.6 -0.4
v 0.2 0.7 0.4
v 0.2 0.7 0.3
v 0.2 0.7 0.2
v 0.2 0.7 -0.2
v 0.2 0.7 -0.3
v 0.2 0.7 -0.4
v 0.2 0.8 0.3
v 0.2 0.8 0.2
v 0.2 0.8 0.1
v 0.2 0.8 -0.1
v 0.2 0.8 -0.2
v 0.2 0.8 -0.3
v 0.2 0.9 0.2
v 0.2 0.9 0.1
v 0.2 0.9 -0.1
v 0.2 0.9 -0.2
v 0.3 0.2 0.2
v 0.3 0.2 -0.2
v 0.3 0.3 0.3
v 0.3 0.3 0.2
v 0.3 0.3 0.1
v 0.3 0.3 -0.1
v 0.3 0.3 -0.2
v 0.3 0.3 -0.3
v 0.3 0.4 0.2
v 0.3 0.4 -0.2
v 0.3 0.6 0.2
v 0.3 0.6 -0.2
v 0.3 0.7 0.3
v 0.3 0.7 0.2
v 0.3 0.7 0.1
v 0.3 0.7 -0.1
v 0.3 0.7 -0.2
v 0.3 0.7 -0.3
v 0.3 0.8 0.2
v 0.3 0.8 -0.2
v 0.4 0.3 0.2
v 0.4 0.3 0.1
v 0.4 0.3 -0.1
v 0.4 0.3 -0.2
v 0.4 0.4 0.2
v 0.4 0.4 0.1
v 0.4 0.4 -0.1
v 0.4 0.4 -0.2
v 0.4 0.6 0.2
v 0.4 0.6 0.1
v 0.4 0.6 -0.1
v 0.4 0.6 -0.2
v 0.4 0.7 0.2
v 0.4 0.7 0.1
v 0.4 0.7 -0.1
v 0.4 0.7 -0.2
v 0.5 0.4 0.1
v 0.5 0.4 -0.1
v 0.5 0.6 0.1
v 0.5 0.6 -0.1
v -0.1 0.4 0.5
v -0.1 0.6 0.5
v 0.1 0.4 0.5
v 0.1 0.6 0.5
v -0.2 0.3 0.4
v -0.2 0.4 0.4
v -0.2 0.6 0.4
v -0.2 0.7 0.4
v -0.1 0.3 0.4
v -0.1 0.4 0.4
v -0.1 0.6 0.4
v -0.1 0.7 0.4
v 0.1 0.3 0.4
v 0.1 0.4 0.4
v 0.1 0.6 0.4
v 0.1 0.7 0.4
v 0.2 0.3 0.4
v 0.2 0.4 0.4
v 0.2 0.6 0.4
v 0.2 0.7 0.4
v -0.3 0.3 0.3
v -0.3 0.7 0.3
v -0.2 0.2 0.3
v -0.2 0.3 0.3
v -0.2 0.4 0.3
v -0.2 0.6 0.3
v -0.2 0.7 0.3
v -0.2 0.8 0.3
v -0.1 0.3 0.3
v -0.1 0.7 0.3
v 0.1 0.3 0.3
v 0.1 0.7 0.3
v 0.2 0.2 0.3
v 0.2 0.3 0.3
v 0.2 0.4 0.3
v 0.2 0.6 0.3
v 0.2 0.7 0.3
v 0.2 0.8 0.3
v 0.3 0.3 0.3
v 0.3 0.7 0.3
v -0.4 0.3 0.2
v -0.4 0.4 0.2
v -0.4 0.6 0.2
v -0.4 0.7 0.2
v -0.3 0.2 0.2
v -0.3 0.3 0.2
v -0.3 0.4 0.2
v -0.3 0.6 0.2
v -0.3 0.7 0.2
v -0.3 0.8 0.2
v -0.2 0.1 0.2
v -0.2 0.2 0.2
v -0.2 0.3 0.2
v -0.2 0.7 0.2
v -0.2 0.8 0.2
v -0.2 0.9 0.2
v -0.1 0.1 0.2
v -0.1 0.2 0.2
v -0.1 0.8 0.2
v -0.1 0.9 0.2
v 0.1 0.1 0.2
v 0.1 0.2 0.2
v 0.1 0.8 0.2
v 0.1 0.9 0.2
v 0.2 0.1 0.2
v 0.2 0.2 0.2
v 0.2 0.3 0.2
v 0.2 0.7 0.2
v 0.2 0.8 0.2
v 0.2 0.9 0.2
v 0.3 0.2 0.2
v 0.3 0.3 0.2
v 0.3 0.4 0.2
v 0.3 0.6 0.2
v 0.3 0.7 0.2
v 0.3 0.8 0.2
v 0.4 0.3 0.2
v 0.4 0.4 0.2
v 0.4 0.6 0.2
v 0.4 0.7 0.2
v -0.5 0.4 0.1
v -0.5 0.6 0.1
v -0.4 0.4 0.1
v -0.4 0.6 0.1
v -0.1 0 0.1
v -0.1 0.1 0.1
v -0.1 0.9 0.1
v -0.1 1 0.1
v 0.1 0 0.1
v 0.1 0.1 0.1
v 0.1 0.9 0.1
v 0.1 1 0.1
v 0.4 0.4 0.1
v 0.4 0.6 0.1
v 0.5 0.4 0.1
v 0.5 0.6 0.1
v -0.5 0.4 -0.1
v -0.5 0.6 -0.1
v -0.4 0.4 -0.1
v -0.4 0.6 -0.1
v -0.1 0 -0.1
v -0.1 0.1 -0.1
v -0.1 0.9 -0.1
v -0.1 1 -0.1
v 0.1 0 -0.1
v 0.1 0.1 -0.1
v 0.1 0.9 -0.1
v 0.1 1 -0.1
v 0.4 0.4 -0.1
v 0.4 0.6 -0.1
v 0.5 0.4 -0.1
v 0.5 0.6 -0.1
v -0.4 0.3 -0.2
v -0.4 0.4 -0.2
v -0.4 0.6 -0.2
v -0.4 0.7 -0.2
v -0.3 0.2 -0.2
v -0.3 0.3 -0.2
v -0.3 0.4 -0.2
v -0.3 0.6 -0.2
v -0.3 0.7 -0.2
v -0.3 0.8 -0.2
v -0.2 0.1 -0.2
v -0.2 0.2 -0.2
v -0.2 0.3 -0.2
v -0.2 0.7 -0.2
v -0.2 0.8 -0.2
v -0.2 0.9 -0.2
v -0.1 0.1 -0.2
v -0.1 0.2 -0.2
v -0.1 0.8 -0.2
v -0.1 0.9 -0.2
v 0.1 0.1 -0.2
v 0.1 0.2 -0.2
v 0.1 0.8 -0.2
v 0.1 0.9 -0.2
v 0.2 0.1 -0.2
v 0.2 0.2 -0.2
v 0.2 0.3 -0.2
v 0.2 0.7 -0.2
v 0.2 0.8 -0.2
v 0.2 0.9 -0.2
v 0.3 0.2 -0.2
v 0.3 0.3 -0.2
v 0.3 0.4 -0.2
v 0.3 0.6 -0.2
v 0.3 0.7 -0.2
v 0.3 0.8 -0.2
v 0.4 0.3 -0.2
v 0.4 0.4 -0.2
v 0.4 0.6 -0.2
v 0.4 0.7 -0.2
v -0.3 0.3 -0.3
v -0.3 0.7 -0.3
v -0.2 0.2 -0.3
v -0.2 0.3 -0.3
v -0.2 0.4 -0.3
v -0.2 0.6 -0.3
v -0.2 0.7 -0.3
v -0.2 0.8 -0.3
v -0.1 0.3 -0.3
v -0.1 0.7 -0.3
v 0.1 0.3 -0.3
v 0.1 0.7 -0.3
v 0.2 0.2 -0.3
v 0.2 0.3 -0.3
v 0.2 0.4 -0.3
v 0.2 0.6 -0.3
v 0.2 0.7 -0.3
v 0.2 0.8 -0.3
v 0.3 0.3 -0.3
v 0.3 0.7 -0.3
v -0.2 0.3 -0.4
v -0.2 0.4 -0.4
v -0.2 0.6 -0.4
v -0.2 0.7 -0.4
v -0.1 0.3 -0.4
v -0.1 0.4 -0.4
v -0.1 0.6 -0.4
v -0.1 0.7 -0.4
v 0.1 0.3 -0.4
v 0.1 0.4 -0.4
v 0.1 0.6 -0.4
v 0.1 0.7 -0.4
v 0.2 0.3 -0.4
v 0.2 0.4 -0.4
v 0.2 0.6 -0.4
v 0.2 0.7 -0.4
v -0.1 0.4 -0.5
v -0.1 0.6 -0.5
v 0.1 0.4 -0.5
v 0.1 0.6 -0.5
v -0.1 0 0.1
v 0.1 0 0.1
v -0.1 0 -0.1
v 0.1 0 -0.1
v -0.2 0.1 0.2
v -0.1 0.1 0.2
v 0.1 0.1 0.2
v 0.2 0.1 0.2
v -0.2 0.1 0.1
v -0.1 0.1 0.1
v 0.1 0.1 0.1
v 0.2 0.1 0.1
v -0.2 0.1 -0.1
v -0.1 0.1 -0.1
v 0.1 0.1 -0.1
v 0.2 0.1 -0.1
v -0.2 0.1 -0.2
v -0.1 0.1 -0.2
v 0.1 0.1 -0.2
v 0.2 0.1 -0.2
v -0.2 0.2 0.3
v 0.2 0.2 0.3
v -0.3 0.2 0.2
v -0.2 0.2 0.2
v -0.1 0.2 0.2
v 0.1 0.2 0.2
v 0.2 0.2 0.2
v 0.3 0.2 0.2
v -0.2 0.2 0.1
v 0.2 0.2 0.1
v -0.2 0.2 -0.1
v 0.2 0.2 -0.1
v -0.3 0.2 -0.2
v -0.2 0.2 -0.2
v -0.1 0.2 -0.2
v 0.1 0.2 -0.2
v 0.2 0.2 -0.2
v 0.3 0.2 -0.2
v -0.2 0.2 -0.3
v 0.2 0.2 -0.3
v -0.2 0.3 0.4
v -0.1 0.3 0.4
v 0.1 0.3 0.4
v 0.2 0.3 0.4
v -0.3 0.3 0.3
v -0.2 0.3 0.3
v -0.1 0.3 0.3
v 0.1 0.3 0.3
v 0.2 0.3 0.3
v 0.3 0.3 0.3
v -0.4 0.3 0.2
v -0.3 0.3 0.2
v -0.2 0.3 0.2
v 0.2 0.3 0.2
v 0.3 0.3 0.2
v 0.4 0.3 0.2
v -0.4 0.3 0.1
v -0.3 0.3 0.1
v 0.3 0.3 0.1
v 0.4 0.3 0.1
v -0.4 0.3 -0.1
v -0.3 0.3 -0.1
v 0.3 0.3 -0.1
v 0.4 0.3 -0.1
v -0.4 0.3 -0.2
v -0.3 0.3 -0.2
v -0.2 0.3 -0.2
v 0.2 0.3 -0.2
v 0.3 0.3 -0.2
v 0.4 0.3 -0.2
v -0.3 0.3 -0.3
v -0.2 0.3 -0.3
v -0.1 0.3 -0.3
v 0.1 0.3 -0.3
v 0.2 0.3 -0.3
v 0.3 0.3 -0.3
v -0.2 0.3 -0.4
v -0.1 0.3 -0.4
v 0.1 0.3 -0.4
v 0.2 0.3 -0.4
v -0.1 0.4 0.5
v 0.1 0.4 0.5
v -0.1 0.4 0.4
v 0.1 0.4 0.4
v -0.5 0.4 0.1
v -0.4 0.4 0.1
v 0.4 0.4 0.1
v 0.5 0.4 0.1
v -0.5 0.4 -0.1
v -0.4 0.4 -0.1
v 0.4 0.4 -0.1
v 0.5 0.4 -0.1
v -0.1 0.4 -0.4
v 0.1 0.4 -0.4
v -0.1 0.4 -0.5
v 0.1 0.4 -0.5
v -0.1 0.6 0.5
v 0.1 0.6 0.5
v -0.1 0.6 0.4
v 0.1 0.6 0.4
v -0.5 0.6 0.1
v -0.4 0.6 0.1
v 0.4 0.6 0.1
v 0.5 0.6 0.1
v -0.5 0.6 -0.1
v -0.4 0.6 -0.1
v 0.4 0.6 -0.1
v 0.5 0.6 -0.1
v -0.1 0.6 -0.4
v 0.1 0.6 -0.4
v -0.1 0.6 -0.5
v 0.1 0.6 -0.5
v -0.2 0.7 0.4
v -0.1 0.7 0.4
v 0.1 0.7 0.4
v 0.2 0.7 0.4
v -0.3 0.7 0.3
v -0.2 0.7 0.3
v -0.1 0.7 0.3
v 0.1 0.7 0.3
v 0.2 0.7 0.3
v 0.3 0.7 0.3
v -0.4 0.7 0.2
v -0.3 0.7 0.2
v -0.2 0.7 0.2
v 0.2 0.7 0.2
v 0.3 0.7 0.2
v 0.4 0.7 0.2
v -0.4 0.7 0.1
v -0.3 0.7 0.1
v 0.3 0.7 0.1
v 0.4 0.7 0.1
v -0.4 0.7 -0.1
v -0.3 0.7 -0.1
v 0.3 0.7 -0.1
v 0.4 0.7 -0.1
v -0.4 0.7 -0.2
v -0.3 0.7 -0.2
v -0.2 0.7 -0.2
v 0.2 0.7 -0.2
v 0.3 0.7 -0.2
v 0.4 0.7 -0.2
v -0.3 0.7 -0.3
v -0.2 0.7 -0.3
v -0.1 0.7 -0.3
v 0.1 0.7 -0.3
v 0.2 0.7 -0.3
v 0.3 0.7 -0.3
v -0.2 0.7 -0.4
v -0.1 0.7 -0.4
v 0.1 0.7 -0.4
v 0.2 0.7 -0.4
v -0.2 0.8 0.3
v 0.2 0.8 0.3
v -0.3 0.8 0.2
v -0.2 0.8 0.2
v -0.1 0.8 0.2
v 0.1 0.8 0.2
v 0.2 0.8 0.2
v 0.3 0.8 0.2
v -0.2 0.8 0.1
v 0.2 0.8 0.1
v -0.2 0.8 -0.1
v 0.2 0.8 -0.1
v -0.3 0.8 -0.2
v -0.2 0.8 -0.2
v -0.1 0.8 -0.2
v 0.1 0.8 -0.2
v 0.2 0.8 -0.2
v 0.3 0.8 -0.2
v -0.2 0.8 -0.3
v 0.2 0.8 -0.3
v -0.2 0.9 0.2
v -0.1 0.9 0.2
v 0.1 0.9 0.2
v 0.2 0.9 0.2
v -0.2 0.9 0.1
v -0.1 0.9 0.1
v 0.1 0.9 0.1
v 0.2 0.9 0.1
v -0.2 0.9 -0.1
v -0.1 0.9 -0.1
v 0.1 0.9 -0.1
v 0.2 0.9 -0.1
v -0.2 0.9 -0.2
v -0.1 0.9 -0.2
v 0.1 0.9 -0.2
v 0.2 0.9 -0.2
v -0.1 1 0.1
v 0.1 1 0.1
v -0.1 1 -0.1
v 0.1 1 -0.1

# faces
f 3/1/1 2/1/1 1/1/1
f 4/1/1 2/1/1 3/1/1
f 9/2/1 6/2/1 5/2/1
f 10/1/1 7/1/1 6/1/1
f 10/2/1 6/2/1 9/2/1
f 11/2/1 8/2/1 7/2/1
f 11/1/1 7/1/1 10/1/1
f 12/2/1 8/2/1 11/2/1
f 13/1/1 10/1/1 9/1/1
f 14/1/1 10/1/1 13/1/1
f 15/1/1 12/1/1 11/1/1
f 16/1/1 12/1/1 15/1/1
f 17/2/1 14/2/1 13/2/1
f 18/1/1 15/1/1 14/1/1
f 18/2/1 14/2/1 17/2/1
f 19/2/1 16/2/1 15/2/1
f 19/1/1 15/1/1 18/1/1
f 20/2/1 16/2/1 19/2/1
f 24/2/1 22/2/1 21/2/1
f 25/2/1 22/2/1 24/2/1
f 26/2/1 22/2/1 25/2/1
f 27/2/1 22/2/1 26/2/1
f 29/2/1 24/2/1 23/2/1
f 30/2/1 28/2/1 27/2/1
f 31/2/1 29/2/1 23/2/1
f 32/2/1 28/2/1 30/2/1
f 33/2/1 31/2/1 23/2/1
f 34/2/1 31/2/1 33/2/1
f 37/2/1 28/2/1 32/2/1
f 38/2/1 28/2/1 37/2/1
f 39/2/1 36/2/1 35/2/1
f 39/2/1 37/2/1 36/2/1
f 39/2/1 35/2/1 34/2/1
f 40/2/1 37/2/1 39/2/1
f 46/2/1 42/2/1 41/2/1
f 47/1/1 43/1/1 42/1/1
f 47/2/1 42/2/1 46/2/1
f 48/2/1 44/2/1 43/2/1
f 48/1/1 43/1/1 47/1/1
f 49/2/1 44/2/1 48/2/1
f 52/2/1 46/2/1 45/2/1
f 53/2/1 46/2/1 52/2/1
f 54/2/1 50/2/1 49/2/1
f 55/2/1 50/2/1 54/2/1
f 57/2/1 52/2/1 51/2/1
f 58/2/1 52/2/1 57/2/1
f 59/2/1 56/2/1 55/2/1
f 60/2/1 56/2/1 59/2/1
f 61/1/1 58/1/1 57/1/1
f 62/1/1 58/1/1 61/1/1
f 63/1/1 60/1/1 59/1/1
f 64/1/1 60/1/1 63/1/1
f 65/2/1 62/2/1 61/2/1
f 66/2/1 62/2/1 65/2/1
f 69/2/1 64/2/1 63/2/1
f 70/2/1 64/2/1 69/2/1
f 71/2/1 67/2/1 66/2/1
f 72/2/1 67/2/1 71/2/1
f 75/2/1 69/2/1 68/2/1
f 76/2/1 69/2/1 75/2/1
f 77/2/1 73/2/1 72/2/1
f 78/1/1 74/1/1 73/1/1
f 78/2/1 73/2/1 77/2/1
f 79/2/1 75/2/1 74/2/1
f 79/1/1 74/1/1 78/1/1
f 80/2/1 75/2/1 79/2/1
f 83/1/1 82/1/1 81/1/1
f 84/1/1 82/1/1 83/1/1
f 89/1/1 86/1/1 85/1/1
f 90/1/1 86/1/1 89/1/1
f 91/1/1 88/1/1 87/1/1
f 92/1/1 88/1/1 91/1/1
f 95/1/1 94/1/1 93/1/1
f 96/1/1 94/1/1 95/1/1
f 97/1/2 98/1/2 99/1/2
f 99/1/2 98/1/2 100/1/2
f 101/1/2 102/1/2 105/1/2
f 105/1/2 102/1/2 106/1/2
f 103/1/2 104/1/2 107/1/2
f 107/1/2 104/1/2 108/1/2
f 109/1/2 110/1/2 111/1/2
f 111/1/2 110/1/2 112/1/2
f 113/2/2 114/2/2 118/2/2
f 114/1/2 115/1/2 119/1/2
f 118/2/2 114/2/2 119/2/2
f 115/2/2 116/2/2 120/2/2
f 119/1/2 115/1/2 120/1/2
f 120/2/2 116/2/2 121/2/2
f 117/2/2 118/2/2 124/2/2
f 124/2/2 118/2/2 125/2/2
f 121/2/2 122/2/2 126/2/2
f 126/2/2 122/2/2 127/2/2
f 123/2/2 124/2/2 129/2/2
f 129/2/2 124/2/2 130/2/2
f 127/2/2 128/2/2 131/2/2
f 131/2/2 128/2/2 132/2/2
f 129/1/2 130/1/2 133/1/2
f 133/1/2 130/1/2 134/1/2
f 131/1/2 132/1/2 135/1/2
f 135/1/2 132/1/2 136/1/2
f 133/2/2 134/2/2 137/2/2
f 137/2/2 134/2/2 138/2/2
f 135/2/2 136/2/2 141/2/2
f 141/2/2 136/2/2 142/2/2
f 138/2/2 139/2/2 143/2/2
f 143/2/2 139/2/2 144/2/2
f 140/2/2 141/2/2 147/2/2
f 147/2/2 141/2/2 148/2/2
f 144/2/2 145/2/2 149/2/2
f 145/1/2 146/1/2 150/1/2
f 149/2/2 145/2/2 150/2/2
f 146/2/2 147/2/2 151/2/2
f 150/1/2 146/1/2 151/1/2
f 151/2/2 147/2/2 152/2/2
f 153/2/2 154/2/2 156/2/2
f 156/2/2 154/2/2 157/2/2
f 157/2/2 154/2/2 158/2/2
f 158/2/2 154/2/2 159/2/2
f 155/2/2 156/2/2 161/2/2
f 159/2/2 160/2/2 162/2/2
f 155/2/2 161/2/2 163/2/2
f 162/2/2 160/2/2 164/2/2
f 155/2/2 163/2/2 165/2/2
f 165/2/2 163/2/2 166/2/2
f 164/2/2 160/2/2 169/2/2
f 169/2/2 160/2/2 170/2/2
f 167/2/2 168/2/2 171/2/2
f 168/2/2 169/2/2 171/2/2
f 166/2/2 167/2/2 171/2/2
f 171/2/2 169/2/2 172/2/2
f 173/2/2 174/2/2 177/2/2
f 174/1/2 175/1/2 178/1/2
f 177/2/2 174/2/2 178/2/2
f 175/2/2 176/2/2 179/2/2
f 178/1/2 175/1/2 179/1/2
f 179/2/2 176/2/2 180/2/2
f 177/1/2 178/1/2 181/1/2
f 181/1/2 178/1/2 182/1/2
f 179/1/2 180/1/2 183/1/2
f 183/1/2 180/1/2 184/1/2
f 181/2/2 182/2/2 185/2/2
f 182/1/2 183/1/2 186/1/2
f 185/2/2 182/2/2 186/2/2
f 183/2/2 184/2/2 187/2/2
f 186/1/2 183/1/2 187/1/2
f 187/2/2 184/2/2 188/2/2
f 189/1/2 190/1/2 191/1/2
f 191/1/2 190/1/2 192/1/2
f 195/1/3 194/1/3 193/1/3
f 196/1/3 194/1/3 195/1/3
f 201/2/3 198/2/3 197/2/3
f 202/1/3 199/1/3 198/1/3
f 202/2/3 198/2/3 201/2/3
f 203/2/3 200/2/3 199/2/3
f 203/1/3 199/1/3 202/1/3
f 204/2/3 200/2/3 203/2/3
f 205/1/3 202/1/3 201/1/3
f 206/1/3 202/1/3 205/1/3
f 207/1/3 204/1/3 203/1/3
f 208/1/3 204/1/3 207/1/3
f 209/2/3 206/2/3 205/2/3
f 210/1/3 207/1/3 206/1/3
f 210/2/3 206/2/3 209/2/3
f 211/2/3 208/2/3 207/2/3
f 211/1/3 207/1/3 210/1/3
f 212/2/3 208/2/3 211/2/3
f 216/2/3 214/2/3 213/2/3
f 217/2/3 214/2/3 216/2/3
f 218/2/3 214/2/3 217/2/3
f 219/2/3 214/2/3 218/2/3
f 221/2/3 216/2/3 215/2/3
f 222/2/3 220/2/3 219/2/3
f 223/2/3 221/2/3 215/2/3
f 224/2/3 220/2/3 222/2/3
f 225/2/3 223/2/3 215/2/3
f 226/2/3 223/2/3 225/2/3
f 229/2/3 220/2/3 224/2/3
f 230/2/3 220/2/3 229/2/3
f 231/2/3 228/2/3 227/2/3
f 231/2/3 229/2/3 228/2/3
f 231/2/3 227/2/3 226/2/3
f 232/2/3 229/2/3 231/2/3
f 238/2/3 234/2/3 233/2/3
f 239/1/3 235/1/3 234/1/3
f 239/2/3 234/2/3 238/2/3
f 240/2/3 236/2/3 235/2/3
f 240/1/3 235/1/3 239/1/3
f 241/2/3 236/2/3 240/2/3
f 244/2/3 238/2/3 237/2/3
f 245/2/3 238/2/3 244/2/3
f 246/2/3 242/2/3 241/2/3
f 247/2/3 242/2/3 246/2/3
f 249/2/3 244/2/3 243/2/3
f 250/2/3 244/2/3 249/2/3
f 251/2/3 248/2/3 247/2/3
f 252/2/3 248/2/3 251/2/3
f 253/1/3 250/1/3 249/1/3
f 254/1/3 250/1/3 253/1/3
f 255/1/3 252/1/3 251/1/3
f 256/1/3 252/1/3 255/1/3
f 257/2/3 254/2/3 253/2/3
f 258/2/3 254/2/3 257/2/3
f 261/2/3 256/2/3 255/2/3
f 262/2/3 256/2/3 261/2/3
f 263/2/3 259/2/3 258/2/3
f 264/2/3 259/2/3 263/2/3
f 267/2/3 261/2/3 260/2/3
f 268/2/3 261/2/3 267/2/3
f 269/2/3 265/2/3 264/2/3
f 270/1/3 266/1/3 265/1/3
f 270/2/3 265/2/3 269/2/3
f 271/2/3 267/2/3 266/2/3
f 271/1/3 266/1/3 270/1/3
f 272/2/3 267/2/3 271/2/3
f 275/1/3 274/1/3 273/1/3
f 276/1/3 274/1/3 275/1/3
f 281/1/3 278/1/3 277/1/3
f 282/1/3 278/1/3 281/1/3
f 283/1/3 280/1/3 279/1/3
f 284/1/3 280/1/3 283/1/3
f 287/1/3 286/1/3 285/1/3
f 288/1/3 286/1/3 287/1/3
f 289/1/4 290/1/4 291/1/4
f 291/1/4 290/1/4 292/1/4
f 293/1/4 294/1/4 297/1/4
f 297/1/4 294/1/4 298/1/4
f 295/1/4 296/1/4 299/1/4
f 299/1/4 296/1/4 300/1/4
f 301/1/4 302/1/4 303/1/4
f 303/1/4 302/1/4 304/1/4
f 305/2/4 306/2/4 310/2/4
f 306/1/4 307/1/4 311/1/4
f 310/2/4 306/2/4 311/2/4
f 307/2/4 308/2/4 312/2/4
f 311/1/4 307/1/4 312/1/4
f 312/2/4 308/2/4 313/2/4
f 309/2/4 310/2/4 316/2/4
f 316/2/4 310/2/4 317/2/4
f 313/2/4 314/2/4 318/2/4
f 318/2/4 314/2/4 319/2/4
f 315/2/4 316/2/4 321/2/4
f 321/2/4 316/2/4 322/2/4
f 319/2/4 320/2/4 323/2/4
f 323/2/4 320/2/4 324/2/4
f 321/1/4 322/1/4 325/1/4
f 325/1/4 322/1/4 326/1/4
f 323/1/4 324/1/4 327/1/4
f 327/1/4 324/1/4 328/1/4
f 325/2/4 326/2/4 329/2/4
f 329/2/4 326/2/4 330/2/4
f 327/2/4 328/2/4 333/2/4
f 333/2/4 328/2/4 334/2/4
f 330/2/4 331/2/4 335/2/4
f 335/2/4 331/2/4 336/2/4
f 332/2/4 333/2/4 339/2/4
f 339/2/4 333/2/4 340/2/4
f 336/2/4 337/2/4 341/2/4
f 337/1/4 338/1/4 342/1/4
f 341/2/4 337/2/4 342/2/4
f 338/2/4 339/2/4 343/2/4
f 342/1/4 338/1/4 343/1/4
f 343/2/4 339/2/4 344/2/4
f 345/2/4 346/2/4 348/2/4
f 348/2/4 346/2/4 349/2/4
f 349/2/4 346/2/4 350/2/4
f 350/2/4 346/2/4 351/2/4
f 347/2/4 348/2/4 353/2/4
f 351/2/4 352/2/4 354/2/4
f 347/2/4 353/2/4 355/2/4
f 354/2/4 352/2/4 356/2/4
f 347/2/4 355/2/4 357/2/4
f 357/2/4 355/2/4 358/2/4
f 356/2/4 352/2/4 361/2/4
f 361/2/4 352/2/4 362/2/4
f 359/2/4 360/2/4 363/2/4
f 360/2/4 361/2/4 363/2/4
f 358/2/4 359/2/4 363/2/4
f 363/2/4 361/2/4 364/2/4
f 365/2/4 366/2/4 369/2/4
f 366/1/4 367/1/4 370/1/4
f 369/2/4 366/2/4 370/2/4
f 367/2/4 368/2/4 371/2/4
f 370/1/4 367/1/4 371/1/4
f 371/2/4 368/2/4 372/2/4
f 369/1/4 370/1/4 373/1/4
f 373/1/4 370/1/4 374/1/4
f 371/1/4 372/1/4 375/1/4
f 375/1/4 372/1/4 376/1/4
f 373/2/4 374/2/4 377/2/4
f 374/1/4 375/1/4 378/1/4
f 377/2/4 374/2/4 378/2/4
f 375/2/4 376/2/4 379/2/4
f 378/1/4 375/1/4 379/1/4
f 379/2/4 376/2/4 380/2/4
f 381/1/4 382/1/4 383/1/4
f 383/1/4 382/1/4 384/1/4
f 387/1/5 386/1/5 385/1/5
f 388/1/5 386/1/5 387/1/5
f 393/2/5 390/2/5 389/2/5
f 394/1/5 391/1/5 390/1/5
f 394/2/5 390/2/5 393/2/5
f 395/2/5 392/2/5 391/2/5
f 395/1/5 391/1/5 394/1/5
f 396/2/5 392/2/5 395/2/5
f 397/1/5 394/1/5 393/1/5
f 398/1/5 394/1/5 397/1/5
f 399/1/5 396/1/5 395/1/5
f 400/1/5 396/1/5 399/1/5
f 401/2/5 398/2/5 397/2/5
f 402/1/5 399/1/5 398/1/5
f 402/2/5 398/2/5 401/2/5
f 403/2/5 400/2/5 399/2/5
f 403/1/5 399/1/5 402/1/5
f 404/2/5 400/2/5 403/2/5
f 408/2/5 406/2/5 405/2/5
f 409/2/5 406/2/5 408/2/5
f 410/2/5 406/2/5 409/2/5
f 411/2/5 406/2/5 410/2/5
f 413/2/5 408/2/5 407/2/5
f 414/2/5 412/2/5 411/2/5
f 415/2/5 413/2/5 407/2/5
f 416/2/5 412/2/5 414/2/5
f 417/2/5 415/2/5 407/2/5
f 418/2/5 415/2/5 417/2/5
f 421/2/5 412/2/5 416/2/5
f 422/2/5 412/2/5 421/2/5
f 423/2/5 420/2/5 419/2/5
f 423/2/5 421/2/5 420/2/5
f 423/2/5 419/2/5 418/2/5
f 424/2/5 421/2/5 423/2/5
f 430/2/5 426/2/5 425/2/5
f 431/1/5 427/1/5 426/1/5
f 431/2/5 426/2/5 430/2/5
f 432/2/5 428/2/5 427/2/5
f 432/1/5 427/1/5 431/1/5
f 433/2/5 428/2/5 432/2/5
f 436/2/5 430/2/5 429/2/5
f 437/2/5 430/2/5 436/2/5
f 438/2/5 434/2/5 433/2/5
f 439/2/5 434/2/5 438/2/5
f 441/2/5 436/2/5 435/2/5
f 442/2/5 436/2/5 441/2/5
f 443/2/5 440/2/5 439/2/5
f 444/2/5 440/2/5 443/2/5
f 445/1/5 442/1/5 441/1/5
f 446/1/5 442/1/5 445/1/5
f 447/1/5 444/1/5 443/1/5
f 448/1/5 444/1/5 447/1/5
f 449/2/5 446/2/5 445/2/5
f 450/2/5 446/2/5 449/2/5
f 453/2/5 448/2/5 447/2/5
f 454/2/5 448/2/5 453/2/5
f 455/2/5 451/2/5 450/2/5
f 456/2/5 451/2/5 455/2/5
f 459/2/5 453/2/5 452/2/5
f 460/2/5 453/2/5 459/2/5
f 461/2/5 457/2/5 456/2/5
f 462/1/5 458/1/5 457/1/5
f 462/2/5 457/2/5 461/2/5
f 463/2/5 459/2/5 458/2/5
f 463/1/5 458/1/5 462/1/5
f 464/2/5 459/2/5 463/2/5
f 467/1/5 466/1/5 465/1/5
f 468/1/5 466/1/5 467/1/5
f 473/1/5 470/1/5 469/1/5
f 474/1/5 470/1/5 473/1/5
f 475/1/5 472/1/5 471/1/5
f 476/1/5 472/1/5 475/1/5
f 479/1/5 478/1/5 477/1/5
f 480/1/5 478/1/5 479/1/5
f 481/1/6 482/1/6 483/1/6
f 483/1/6 482/1/6 484/1/6
f 485/1/6 486/1/6 489/1/6
f 489/1/6 486/1/6 490/1/6
f 487/1/6 488/1/6 491/1/6
f 491/1/6 488/1/6 492/1/6
f 493/1/6 494/1/6 495/1/6
f 495/1/6 494/1/6 496/1/6
f 497/2/6 498/2/6 502/2/6
f 498/1/6 499/1/6 503/1/6
f 502/2/6 498/2/6 503/2/6
f 499/2/6 500/2/6 504/2/6
f 503/1/6 499/1/6 504/1/6
f 504/2/6 500/2/6 505/2/6
f 501/2/6 502/2/6 508/2/6
f 508/2/6 502/2/6 509/2/6
f 505/2/6 506/2/6 510/2/6
f 510/2/6 506/2/6 511/2/6
f 507/2/6 508/2/6 513/2/6
f 513/2/6 508/2/6 514/2/6
f 511/2/6 512/2/6 515/2/6
f 515/2/6 512/2/6 516/2/6
f 513/1/6 514/1/6 517/1/6
f 517/1/6 514/1/6 518/1/6
f 515/1/6 516/1/6 519/1/6
f 519/1/6 516/1/6 520/1/6
f 517/2/6 518/2/6 521/2/6
f 521/2/6 518/2/6 522/2/6
f 519/2/6 520/2/6 525/2/6
f 525/2/6 520/2/6 526/2/6
f 522/2/6 523/2/6 527/2/6
f 527/2/6 523/2/6 528/2/6
f 524/2/6 525/2/6 531/2/6
f 531/2/6 525/2/6 532/2/6
f 528/2/6 529/2/6 533/2/6
f 529/1/6 530/1/6 534/1/6
f 533/2/6 529/2/6 534/2/6
f 530/2/6 531/2/6 535/2/6
f 534/1/6 530/1/6 535/1/6
f 535/2/6 531/2/6 536/2/6
f 537/2/6 538/2/6 540/2/6
f 540/2/6 538/2/6 541/2/6
f 541/2/6 538/2/6 542/2/6
f 542/2/6 538/2/6 543/2/6
f 539/2/6 540/2/6 545/2/6
f 543/2/6 544/2/6 546/2/6
f 539/2/6 545/2/6 547/2/6
f 546/2/6 544/2/6 548/2/6
f 539/2/6 547/2/6 549/2/6
f 549/2/6 547/2/6 550/2/6
f 548/2/6 544/2/6 553/2/6
f 553/2/6 544/2/6 554/2/6
f 551/2/6 552/2/6 555/2/6
f 552/2/6 553/2/6 555/2/6
f 550/2/6 551/2/6 555/2/6
f 555/2/6 553/2/6 556/2/6
f 557/2/6 558/2/6 561/2/6
f 558/1/6 559/1/6 562/1/6
f 561/2/6 558/2/6 562/2/6
f 559/2/6 560/2/6 563/2/6
f 562/1/6 559/1/6 563/1/6
f 563/2/6 560/2/6 564/2/6
f 561/1/6 562/1/6 565/1/6
f 565/1/6 562/1/6 566/1/6
f 563/1/6 564/1/6 567/1/6
f 567/1/6 564/1/6 568/1/6
f 565/2/6 566/2/6 569/2/6
f 566/1/6 567/1/6 570/1/6
f 569/2/6 566/2/6 570/2/6
f 567/2/6 568/2/6 571/2/6
f 570/1/6 567/1/6 571/1/6
f 571/2/6 568/2/6 572/2/6
f 573/1/6 574/1/6 575/1/6
f 575/1/6 574/1/6 576/1/6
