# MagicaVoxel @ Ephtracy

# group
o 

# material
mtllib greenbutton.mtl
usemtl palette

# normals
vn -1 0 0
vn 1 0 0
vn 0 0 1
vn 0 0 -1
vn 0 -1 0
vn 0 1 0

# texcoords
vt 0.970703 0.5
vt 0.974609 0.5
vt 0.978516 0.5
vt 0.982422 0.5

# verts
v -1 0 1
v -1 0 -1
v -1 0.1 1
v -1 0.1 -1
v -0.9 0.1 0.9
v -0.9 0.1 -0.9
v -0.9 0.2 0.9
v -0.9 0.2 -0.9
v -0.8 0.2 0.8
v -0.8 0.2 -0.8
v -0.8 0.3 0.8
v -0.8 0.3 0.7
v -0.8 0.3 -0.7
v -0.8 0.3 -0.8
v -0.8 0.4 0.7
v -0.8 0.4 0.5
v -0.8 0.4 -0.5
v -0.8 0.4 -0.7
v -0.8 0.5 0.5
v -0.8 0.5 -0.5
v -0.7 0.3 0.8
v -0.7 0.3 0.7
v -0.7 0.3 -0.7
v -0.7 0.3 -0.8
v -0.7 0.4 0.8
v -0.7 0.4 0.7
v -0.7 0.4 0.6
v -0.7 0.4 0.5
v -0.7 0.4 -0.5
v -0.7 0.4 -0.6
v -0.7 0.4 -0.7
v -0.7 0.4 -0.8
v -0.7 0.5 0.6
v -0.7 0.5 0.5
v -0.7 0.5 -0.5
v -0.7 0.5 -0.6
v -0.6 0.4 0.7
v -0.6 0.4 0.6
v -0.6 0.4 -0.6
v -0.6 0.4 -0.7
v -0.6 0.5 0.7
v -0.6 0.5 0.6
v -0.6 0.5 -0.6
v -0.6 0.5 -0.7
v -0.5 0.4 0.8
v -0.5 0.4 0.7
v -0.5 0.4 -0.7
v -0.5 0.4 -0.8
v -0.5 0.5 0.8
v -0.5 0.5 0.7
v -0.5 0.5 -0.7
v -0.5 0.5 -0.8
v 0.5 0.4 0.8
v 0.5 0.4 0.7
v 0.5 0.4 -0.7
v 0.5 0.4 -0.8
v 0.5 0.5 0.8
v 0.5 0.5 0.7
v 0.5 0.5 -0.7
v 0.5 0.5 -0.8
v 0.6 0.4 0.7
v 0.6 0.4 0.6
v 0.6 0.4 -0.6
v 0.6 0.4 -0.7
v 0.6 0.5 0.7
v 0.6 0.5 0.6
v 0.6 0.5 -0.6
v 0.6 0.5 -0.7
v 0.7 0.3 0.8
v 0.7 0.3 0.7
v 0.7 0.3 -0.7
v 0.7 0.3 -0.8
v 0.7 0.4 0.8
v 0.7 0.4 0.7
v 0.7 0.4 0.6
v 0.7 0.4 0.5
v 0.7 0.4 -0.5
v 0.7 0.4 -0.6
v 0.7 0.4 -0.7
v 0.7 0.4 -0.8
v 0.7 0.5 0.6
v 0.7 0.5 0.5
v 0.7 0.5 -0.5
v 0.7 0.5 -0.6
v 0.8 0.2 0.8
v 0.8 0.2 -0.8
v 0.8 0.3 0.8
v 0.8 0.3 0.7
v 0.8 0.3 -0.7
v 0.8 0.3 -0.8
v 0.8 0.4 0.7
v 0.8 0.4 0.5
v 0.8 0.4 -0.5
v 0.8 0.4 -0.7
v 0.8 0.5 0.5
v 0.8 0.5 -0.5
v 0.9 0.1 0.9
v 0.9 0.1 -0.9
v 0.9 0.2 0.9
v 0.9 0.2 -0.9
v 1 0 1
v 1 0 -1
v 1 0.1 1
v 1 0.1 -1
v -1 0 1
v -1 0.1 1
v 1 0 1
v 1 0.1 1
v -0.9 0.1 0.9
v -0.9 0.2 0.9
v 0.9 0.1 0.9
v 0.9 0.2 0.9
v -0.8 0.2 0.8
v -0.8 0.3 0.8
v -0.7 0.3 0.8
v -0.7 0.4 0.8
v -0.5 0.4 0.8
v -0.5 0.5 0.8
v 0.5 0.4 0.8
v 0.5 0.5 0.8
v 0.7 0.3 0.8
v 0.7 0.4 0.8
v 0.8 0.2 0.8
v 0.8 0.3 0.8
v -0.8 0.3 0.7
v -0.8 0.4 0.7
v -0.7 0.3 0.7
v -0.7 0.4 0.7
v -0.6 0.4 0.7
v -0.6 0.5 0.7
v -0.5 0.4 0.7
v -0.5 0.5 0.7
v 0.5 0.4 0.7
v 0.5 0.5 0.7
v 0.6 0.4 0.7
v 0.6 0.5 0.7
v 0.7 0.3 0.7
v 0.7 0.4 0.7
v 0.8 0.3 0.7
v 0.8 0.4 0.7
v -0.7 0.4 0.6
v -0.7 0.5 0.6
v -0.6 0.4 0.6
v -0.6 0.5 0.6
v 0.6 0.4 0.6
v 0.6 0.5 0.6
v 0.7 0.4 0.6
v 0.7 0.5 0.6
v -0.8 0.4 0.5
v -0.8 0.5 0.5
v -0.7 0.4 0.5
v -0.7 0.5 0.5
v 0.7 0.4 0.5
v 0.7 0.5 0.5
v 0.8 0.4 0.5
v 0.8 0.5 0.5
v -0.8 0.4 -0.5
v -0.8 0.5 -0.5
v -0.7 0.4 -0.5
v -0.7 0.5 -0.5
v 0.7 0.4 -0.5
v 0.7 0.5 -0.5
v 0.8 0.4 -0.5
v 0.8 0.5 -0.5
v -0.7 0.4 -0.6
v -0.7 0.5 -0.6
v -0.6 0.4 -0.6
v -0.6 0.5 -0.6
v 0.6 0.4 -0.6
v 0.6 0.5 -0.6
v 0.7 0.4 -0.6
v 0.7 0.5 -0.6
v -0.8 0.3 -0.7
v -0.8 0.4 -0.7
v -0.7 0.3 -0.7
v -0.7 0.4 -0.7
v -0.6 0.4 -0.7
v -0.6 0.5 -0.7
v -0.5 0.4 -0.7
v -0.5 0.5 -0.7
v 0.5 0.4 -0.7
v 0.5 0.5 -0.7
v 0.6 0.4 -0.7
v 0.6 0.5 -0.7
v 0.7 0.3 -0.7
v 0.7 0.4 -0.7
v 0.8 0.3 -0.7
v 0.8 0.4 -0.7
v -0.8 0.2 -0.8
v -0.8 0.3 -0.8
v -0.7 0.3 -0.8
v -0.7 0.4 -0.8
v -0.5 0.4 -0.8
v -0.5 0.5 -0.8
v 0.5 0.4 -0.8
v 0.5 0.5 -0.8
v 0.7 0.3 -0.8
v 0.7 0.4 -0.8
v 0.8 0.2 -0.8
v 0.8 0.3 -0.8
v -0.9 0.1 -0.9
v -0.9 0.2 -0.9
v 0.9 0.1 -0.9
v 0.9 0.2 -0.9
v -1 0 -1
v -1 0.1 -1
v 1 0 -1
v 1 0.1 -1
v -1 0 1
v 1 0 1
v -0.9 0 0.9
v 0.9 0 0.9
v -0.9 0 -0.9
v 0.9 0 -0.9
v -1 0 -1
v 1 0 -1
v -1 0.1 1
v 1 0.1 1
v -0.9 0.1 0.9
v 0.9 0.1 0.9
v -0.9 0.1 -0.9
v 0.9 0.1 -0.9
v -1 0.1 -1
v 1 0.1 -1
v -0.9 0.2 0.9
v 0.9 0.2 0.9
v -0.8 0.2 0.8
v 0.8 0.2 0.8
v -0.8 0.2 -0.8
v 0.8 0.2 -0.8
v -0.9 0.2 -0.9
v 0.9 0.2 -0.9
v -0.8 0.3 0.8
v -0.7 0.3 0.8
v 0.7 0.3 0.8
v 0.8 0.3 0.8
v -0.8 0.3 0.7
v -0.7 0.3 0.7
v 0.7 0.3 0.7
v 0.8 0.3 0.7
v -0.8 0.3 -0.7
v -0.7 0.3 -0.7
v 0.7 0.3 -0.7
v 0.8 0.3 -0.7
v -0.8 0.3 -0.8
v -0.7 0.3 -0.8
v 0.7 0.3 -0.8
v 0.8 0.3 -0.8
v -0.7 0.4 0.8
v -0.5 0.4 0.8
v 0.5 0.4 0.8
v 0.7 0.4 0.8
v -0.8 0.4 0.7
v -0.7 0.4 0.7
v -0.6 0.4 0.7
v -0.5 0.4 0.7
v 0.5 0.4 0.7
v 0.6 0.4 0.7
v 0.7 0.4 0.7
v 0.8 0.4 0.7
v -0.7 0.4 0.6
v -0.6 0.4 0.6
v 0.6 0.4 0.6
v 0.7 0.4 0.6
v -0.8 0.4 0.5
v -0.7 0.4 0.5
v 0.7 0.4 0.5
v 0.8 0.4 0.5
v -0.8 0.4 -0.5
v -0.7 0.4 -0.5
v 0.7 0.4 -0.5
v 0.8 0.4 -0.5
v -0.7 0.4 -0.6
v -0.6 0.4 -0.6
v 0.6 0.4 -0.6
v 0.7 0.4 -0.6
v -0.8 0.4 -0.7
v -0.7 0.4 -0.7
v -0.6 0.4 -0.7
v -0.5 0.4 -0.7
v 0.5 0.4 -0.7
v 0.6 0.4 -0.7
v 0.7 0.4 -0.7
v 0.8 0.4 -0.7
v -0.7 0.4 -0.8
v -0.5 0.4 -0.8
v 0.5 0.4 -0.8
v 0.7 0.4 -0.8
v -0.5 0.5 0.8
v 0.5 0.5 0.8
v -0.6 0.5 0.7
v -0.5 0.5 0.7
v -0.4 0.5 0.7
v 0.4 0.5 0.7
v 0.5 0.5 0.7
v 0.6 0.5 0.7
v -0.7 0.5 0.6
v -0.6 0.5 0.6
v -0.5 0.5 0.6
v -0.4 0.5 0.6
v 0.4 0.5 0.6
v 0.5 0.5 0.6
v 0.6 0.5 0.6
v 0.7 0.5 0.6
v -0.8 0.5 0.5
v -0.7 0.5 0.5
v -0.6 0.5 0.5
v -0.5 0.5 0.5
v 0.5 0.5 0.5
v 0.6 0.5 0.5
v 0.7 0.5 0.5
v 0.8 0.5 0.5
v -0.7 0.5 0.4
v -0.6 0.5 0.4
v 0.6 0.5 0.4
v 0.7 0.5 0.4
v -0.7 0.5 -0.4
v -0.6 0.5 -0.4
v 0.6 0.5 -0.4
v 0.7 0.5 -0.4
v -0.8 0.5 -0.5
v -0.7 0.5 -0.5
v -0.6 0.5 -0.5
v -0.5 0.5 -0.5
v 0.5 0.5 -0.5
v 0.6 0.5 -0.5
v 0.7 0.5 -0.5
v 0.8 0.5 -0.5
v -0.7 0.5 -0.6
v -0.6 0.5 -0.6
v -0.5 0.5 -0.6
v -0.4 0.5 -0.6
v 0.4 0.5 -0.6
v 0.5 0.5 -0.6
v 0.6 0.5 -0.6
v 0.7 0.5 -0.6
v -0.6 0.5 -0.7
v -0.5 0.5 -0.7
v -0.4 0.5 -0.7
v 0.4 0.5 -0.7
v 0.5 0.5 -0.7
v 0.6 0.5 -0.7
v -0.5 0.5 -0.8
v 0.5 0.5 -0.8

# faces
f 3/1/1 2/1/1 1/1/1
f 4/1/1 2/1/1 3/1/1
f 7/2/1 6/2/1 5/2/1
f 8/2/1 6/2/1 7/2/1
f 11/2/1 10/2/1 9/2/1
f 12/2/1 10/2/1 11/2/1
f 13/2/1 10/2/1 12/2/1
f 14/2/1 10/2/1 13/2/1
f 15/3/1 13/3/1 12/3/1
f 16/3/1 13/3/1 15/3/1
f 17/3/1 13/3/1 16/3/1
f 18/3/1 13/3/1 17/3/1
f 19/3/1 17/3/1 16/3/1
f 20/3/1 17/3/1 19/3/1
f 25/3/1 22/3/1 21/3/1
f 26/3/1 22/3/1 25/3/1
f 31/3/1 24/3/1 23/3/1
f 32/3/1 24/3/1 31/3/1
f 33/3/1 28/3/1 27/3/1
f 34/3/1 28/3/1 33/3/1
f 35/3/1 30/3/1 29/3/1
f 36/3/1 30/3/1 35/3/1
f 41/3/1 38/3/1 37/3/1
f 42/3/1 38/3/1 41/3/1
f 43/3/1 40/3/1 39/3/1
f 44/3/1 40/3/1 43/3/1
f 49/3/1 46/3/1 45/3/1
f 50/3/1 46/3/1 49/3/1
f 51/3/1 48/3/1 47/3/1
f 52/3/1 48/3/1 51/3/1
f 53/3/2 54/3/2 57/3/2
f 57/3/2 54/3/2 58/3/2
f 55/3/2 56/3/2 59/3/2
f 59/3/2 56/3/2 60/3/2
f 61/3/2 62/3/2 65/3/2
f 65/3/2 62/3/2 66/3/2
f 63/3/2 64/3/2 67/3/2
f 67/3/2 64/3/2 68/3/2
f 69/3/2 70/3/2 73/3/2
f 73/3/2 70/3/2 74/3/2
f 71/3/2 72/3/2 79/3/2
f 79/3/2 72/3/2 80/3/2
f 75/3/2 76/3/2 81/3/2
f 81/3/2 76/3/2 82/3/2
f 77/3/2 78/3/2 83/3/2
f 83/3/2 78/3/2 84/3/2
f 85/2/2 86/2/2 87/2/2
f 87/2/2 86/2/2 88/2/2
f 88/2/2 86/2/2 89/2/2
f 89/2/2 86/2/2 90/2/2
f 88/3/2 89/3/2 91/3/2
f 91/3/2 89/3/2 92/3/2
f 92/3/2 89/3/2 93/3/2
f 93/3/2 89/3/2 94/3/2
f 92/3/2 93/3/2 95/3/2
f 95/3/2 93/3/2 96/3/2
f 97/2/2 98/2/2 99/2/2
f 99/2/2 98/2/2 100/2/2
f 101/1/2 102/1/2 103/1/2
f 103/1/2 102/1/2 104/1/2
f 107/1/3 106/1/3 105/1/3
f 108/1/3 106/1/3 107/1/3
f 111/2/3 110/2/3 109/2/3
f 112/2/3 110/2/3 111/2/3
f 115/2/3 114/2/3 113/2/3
f 117/3/3 116/3/3 115/3/3
f 119/3/3 117/3/3 115/3/3
f 119/3/3 118/3/3 117/3/3
f 120/3/3 118/3/3 119/3/3
f 121/2/3 115/2/3 113/2/3
f 121/3/3 119/3/3 115/3/3
f 122/3/3 119/3/3 121/3/3
f 123/2/3 121/2/3 113/2/3
f 124/2/3 121/2/3 123/2/3
f 127/3/3 126/3/3 125/3/3
f 128/3/3 126/3/3 127/3/3
f 131/3/3 130/3/3 129/3/3
f 132/3/3 130/3/3 131/3/3
f 135/3/3 134/3/3 133/3/3
f 136/3/3 134/3/3 135/3/3
f 139/3/3 138/3/3 137/3/3
f 140/3/3 138/3/3 139/3/3
f 143/3/3 142/3/3 141/3/3
f 144/3/3 142/3/3 143/3/3
f 147/3/3 146/3/3 145/3/3
f 148/3/3 146/3/3 147/3/3
f 151/3/3 150/3/3 149/3/3
f 152/3/3 150/3/3 151/3/3
f 155/3/3 154/3/3 153/3/3
f 156/3/3 154/3/3 155/3/3
f 157/3/4 158/3/4 159/3/4
f 159/3/4 158/3/4 160/3/4
f 161/3/4 162/3/4 163/3/4
f 163/3/4 162/3/4 164/3/4
f 165/3/4 166/3/4 167/3/4
f 167/3/4 166/3/4 168/3/4
f 169/3/4 170/3/4 171/3/4
f 171/3/4 170/3/4 172/3/4
f 173/3/4 174/3/4 175/3/4
f 175/3/4 174/3/4 176/3/4
f 177/3/4 178/3/4 179/3/4
f 179/3/4 178/3/4 180/3/4
f 181/3/4 182/3/4 183/3/4
f 183/3/4 182/3/4 184/3/4
f 185/3/4 186/3/4 187/3/4
f 187/3/4 186/3/4 188/3/4
f 189/2/4 190/2/4 191/2/4
f 191/3/4 192/3/4 193/3/4
f 191/3/4 193/3/4 195/3/4
f 193/3/4 194/3/4 195/3/4
f 195/3/4 194/3/4 196/3/4
f 189/2/4 191/2/4 197/2/4
f 191/3/4 195/3/4 197/3/4
f 197/3/4 195/3/4 198/3/4
f 189/2/4 197/2/4 199/2/4
f 199/2/4 197/2/4 200/2/4
f 201/2/4 202/2/4 203/2/4
f 203/2/4 202/2/4 204/2/4
f 205/1/4 206/1/4 207/1/4
f 207/1/4 206/1/4 208/1/4
f 211/1/5 210/1/5 209/1/5
f 212/1/5 210/1/5 211/1/5
f 213/1/5 211/1/5 209/1/5
f 213/2/5 212/2/5 211/2/5
f 214/1/5 210/1/5 212/1/5
f 214/2/5 212/2/5 213/2/5
f 215/1/5 213/1/5 209/1/5
f 215/1/5 214/1/5 213/1/5
f 216/1/5 210/1/5 214/1/5
f 216/1/5 214/1/5 215/1/5
f 217/1/6 218/1/6 219/1/6
f 219/1/6 218/1/6 220/1/6
f 217/1/6 219/1/6 221/1/6
f 220/1/6 218/1/6 222/1/6
f 217/1/6 221/1/6 223/1/6
f 221/1/6 222/1/6 223/1/6
f 222/1/6 218/1/6 224/1/6
f 223/1/6 222/1/6 224/1/6
f 225/2/6 226/2/6 227/2/6
f 227/2/6 226/2/6 228/2/6
f 225/2/6 227/2/6 229/2/6
f 228/2/6 226/2/6 230/2/6
f 225/2/6 229/2/6 231/2/6
f 229/2/6 230/2/6 231/2/6
f 230/2/6 226/2/6 232/2/6
f 231/2/6 230/2/6 232/2/6
f 233/2/6 234/2/6 237/2/6
f 237/2/6 234/2/6 238/2/6
f 235/2/6 236/2/6 239/2/6
f 239/2/6 236/2/6 240/2/6
f 241/2/6 242/2/6 245/2/6
f 245/2/6 242/2/6 246/2/6
f 243/2/6 244/2/6 247/2/6
f 247/2/6 244/2/6 248/2/6
f 249/3/6 250/3/6 254/3/6
f 254/3/6 250/3/6 255/3/6
f 255/3/6 250/3/6 256/3/6
f 251/3/6 252/3/6 257/3/6
f 257/3/6 252/3/6 258/3/6
f 258/3/6 252/3/6 259/3/6
f 253/3/6 254/3/6 261/3/6
f 254/3/6 255/3/6 261/3/6
f 261/3/6 255/3/6 262/3/6
f 259/3/6 260/3/6 263/3/6
f 258/3/6 259/3/6 263/3/6
f 263/3/6 260/3/6 264/3/6
f 253/3/6 261/3/6 265/3/6
f 265/3/6 261/3/6 266/3/6
f 264/3/6 260/3/6 267/3/6
f 267/3/6 260/3/6 268/3/6
f 269/3/6 270/3/6 273/3/6
f 271/3/6 272/3/6 276/3/6
f 273/3/6 274/3/6 277/3/6
f 269/3/6 273/3/6 277/3/6
f 277/3/6 274/3/6 278/3/6
f 278/3/6 274/3/6 279/3/6
f 275/3/6 276/3/6 282/3/6
f 276/3/6 272/3/6 283/3/6
f 282/3/6 276/3/6 283/3/6
f 283/3/6 272/3/6 284/3/6
f 279/3/6 280/3/6 285/3/6
f 278/3/6 279/3/6 285/3/6
f 285/3/6 280/3/6 286/3/6
f 281/3/6 282/3/6 287/3/6
f 282/3/6 283/3/6 287/3/6
f 287/3/6 283/3/6 288/3/6
f 289/3/6 290/3/6 292/3/6
f 292/3/6 290/3/6 293/3/6
f 293/3/6 290/3/6 294/3/6
f 294/3/6 290/3/6 295/3/6
f 291/3/6 292/3/6 298/3/6
f 292/3/6 293/3/6 298/3/6
f 298/3/6 293/3/6 299/3/6
f 293/4/6 294/4/6 300/4/6
f 299/3/6 293/3/6 300/3/6
f 295/3/6 296/3/6 301/3/6
f 300/4/6 294/4/6 301/4/6
f 294/3/6 295/3/6 301/3/6
f 301/3/6 296/3/6 302/3/6
f 302/3/6 296/3/6 303/3/6
f 297/3/6 298/3/6 306/3/6
f 298/3/6 299/3/6 306/3/6
f 306/3/6 299/3/6 307/3/6
f 299/4/6 300/4/6 308/4/6
f 307/3/6 299/3/6 308/3/6
f 300/4/6 301/4/6 308/4/6
f 301/4/6 302/4/6 308/4/6
f 303/3/6 304/3/6 309/3/6
f 308/4/6 302/4/6 309/4/6
f 302/3/6 303/3/6 309/3/6
f 309/3/6 304/3/6 310/3/6
f 310/3/6 304/3/6 311/3/6
f 306/3/6 307/3/6 313/3/6
f 305/3/6 306/3/6 313/3/6
f 307/4/6 308/4/6 314/4/6
f 313/3/6 307/3/6 314/3/6
f 308/4/6 309/4/6 314/4/6
f 309/4/6 310/4/6 314/4/6
f 311/3/6 312/3/6 315/3/6
f 314/4/6 310/4/6 315/4/6
f 310/3/6 311/3/6 315/3/6
f 315/3/6 312/3/6 316/3/6
f 313/4/6 314/4/6 317/4/6
f 305/3/6 313/3/6 317/3/6
f 315/4/6 316/4/6 317/4/6
f 314/4/6 315/4/6 317/4/6
f 317/4/6 316/4/6 318/4/6
f 318/4/6 316/4/6 319/4/6
f 316/3/6 312/3/6 320/3/6
f 319/4/6 316/4/6 320/4/6
f 305/3/6 317/3/6 321/3/6
f 317/3/6 318/3/6 321/3/6
f 321/3/6 318/3/6 322/3/6
f 318/4/6 319/4/6 323/4/6
f 322/3/6 318/3/6 323/3/6
f 323/4/6 319/4/6 324/4/6
f 324/4/6 319/4/6 325/4/6
f 319/3/6 320/3/6 326/3/6
f 325/4/6 319/4/6 326/4/6
f 320/3/6 312/3/6 327/3/6
f 326/3/6 320/3/6 327/3/6
f 327/3/6 312/3/6 328/3/6
f 322/3/6 323/3/6 329/3/6
f 323/3/6 324/3/6 329/3/6
f 329/3/6 324/3/6 330/3/6
f 324/4/6 325/4/6 331/4/6
f 330/3/6 324/3/6 331/3/6
f 331/4/6 325/4/6 332/4/6
f 332/4/6 325/4/6 333/4/6
f 325/3/6 326/3/6 334/3/6
f 333/4/6 325/4/6 334/4/6
f 326/3/6 327/3/6 334/3/6
f 334/3/6 327/3/6 335/3/6
f 335/3/6 327/3/6 336/3/6
f 331/3/6 332/3/6 337/3/6
f 330/3/6 331/3/6 337/3/6
f 337/3/6 332/3/6 338/3/6
f 332/4/6 333/4/6 339/4/6
f 338/3/6 332/3/6 339/3/6
f 334/3/6 335/3/6 340/3/6
f 339/4/6 333/4/6 340/4/6
f 333/3/6 334/3/6 340/3/6
f 340/3/6 335/3/6 341/3/6
f 341/3/6 335/3/6 342/3/6
f 338/3/6 339/3/6 343/3/6
f 340/3/6 341/3/6 343/3/6
f 339/3/6 340/3/6 343/3/6
f 343/3/6 341/3/6 344/3/6
